<svg width="120" height="84" viewBox="0 0 120 84" fill="none" xmlns="http://www.w3.org/2000/svg">
<circle cx="61" cy="21" r="21" fill="#CF222C"/>
<path d="M44.2222 48C51.2222 48 51.7222 50.5 60.7222 50.5V83.5H57.7222H35.2222C25.2223 83.5 25.2222 77.0198 25.2222 76C25.2222 71.5 24.7222 69 25.2222 64.5C25.6087 61.0214 30.7221 48 44.2222 48Z" fill="#CF222C"/>
<path d="M77.5 48C70.5 48 69.5 50.5 60.4999 50.5H59L57.5 83.5L63.9999 83.5H86.4999C96.4999 83.5 96.5 77.0198 96.5 76C96.5 71.5 96.9999 69 96.4999 64.5C96.1134 61.0214 91.0001 48 77.5 48Z" fill="#CF222C"/>
<path fill-rule="evenodd" clip-rule="evenodd" d="M32.5379 46.0808C30.931 43.6235 28.1552 42 25 42H9C4.02942 42 0 46.0294 0 51V57C0 61.9706 4.02942 66 9 66H20.0749C20.1146 65.3538 20.1722 64.6731 20.2528 63.9479C20.5622 61.1633 22.3666 56.1479 25.9323 51.7825C27.6468 49.6834 29.8367 47.6571 32.5379 46.0808ZM34 51.0655V57C34 61.942 30.0168 65.9536 25.0857 65.9996C25.1192 65.5227 25.1639 65.025 25.2222 64.5C25.4893 62.0966 28.0128 55.1376 34 51.0655ZM101.647 66H111C115.971 66 120 61.9706 120 57V51C120 46.0294 115.971 42 111 42H95C92.142 42 89.5952 43.3321 87.9466 45.4093C91.2244 47.0567 93.8207 49.3716 95.79 51.7825C99.3557 56.1479 101.16 61.1633 101.469 63.9479C101.55 64.6731 101.608 65.3538 101.647 66ZM96.6366 66H95C90.0294 66 86 61.9706 86 57V51C86 50.6814 86.0166 50.3666 86.0489 50.0565C93.2447 53.869 96.2094 61.8837 96.5 64.5C96.5583 65.0251 96.6031 65.523 96.6366 66ZM17.5 37C24.4036 37 30 31.4036 30 24.5C30 17.5964 24.4036 12 17.5 12C10.5964 12 5 17.5964 5 24.5C5 31.4036 10.5964 37 17.5 37ZM116 24.5C116 31.4036 110.404 37 103.5 37C96.5964 37 91 31.4036 91 24.5C91 17.5964 96.5964 12 103.5 12C110.404 12 116 17.5964 116 24.5Z" fill="#CF222C"/>
</svg>
