<svg width="72" height="72" viewBox="0 0 72 72" fill="none" xmlns="http://www.w3.org/2000/svg">
<circle cx="36" cy="36" r="36" fill="#7289DA"/>
<path d="M55 44.9937C54.8255 44.8081 52.0365 49.6288 44.8885 49.8144C44.8885 49.8144 43.6682 48.331 42.7962 47.0332C46.98 45.7354 48.5494 43.1398 48.5494 43.1398C47.3644 43.8889 46.1423 44.5697 44.8885 45.1793C43.372 45.8427 41.7959 46.3398 40.1845 46.6627C37.4122 47.128 34.5885 47.128 31.8162 46.6627C30.2008 46.3574 28.6229 45.8598 27.1122 45.1793C26.4148 44.8088 25.5442 44.4376 24.6716 44.0671C24.4971 44.0671 24.4971 43.8815 24.3232 43.8815H24.1487C23.8681 43.6789 23.577 43.4932 23.2767 43.3254C23.2767 43.3254 24.8447 45.921 28.8554 47.2188C27.8096 48.5166 26.7632 50 26.7632 50C19.6151 49.8144 17 44.9973 17 44.9973C17.1111 38.205 18.7207 31.5355 21.6992 25.5259C26.4086 21.8181 30.7663 22.0015 30.7663 22.0015L31.1147 22.372C25.3629 23.8576 22.7477 26.6417 22.7477 26.6417C22.7477 26.6417 23.4451 26.2712 24.6654 25.7144C28.1518 24.2281 30.7663 23.6691 31.9873 23.6691H32.5102C34.6524 23.3905 36.8186 23.3905 38.9608 23.6691C42.3681 24.0825 45.6763 25.1514 48.7239 26.8237C48.7239 26.8237 46.1054 24.2281 40.704 22.5598L41.2276 22.0015C41.2276 22.0015 45.5859 21.8159 50.2947 25.5245C53.275 31.5328 54.8867 38.2016 55 44.9937V44.9937ZM29.895 41.6585C30.7967 41.6337 31.6521 41.229 32.2732 40.5336C32.8944 39.8382 33.2305 38.9089 33.2076 37.95C33.2299 37.4726 33.1608 36.9954 33.0044 36.5474C32.848 36.0993 32.6076 35.6897 32.2978 35.3434C31.988 34.9972 31.6153 34.7215 31.2022 34.5331C30.7892 34.3447 30.3445 34.2476 29.895 34.2476C29.4456 34.2476 29.0009 34.3447 28.5879 34.5331C28.1748 34.7215 27.8021 34.9972 27.4923 35.3434C27.1825 35.6897 26.9421 36.0993 26.7857 36.5474C26.6293 36.9954 26.5602 37.4726 26.5825 37.95C26.5601 38.9085 26.8965 39.8373 27.5176 40.5322C28.1387 41.2272 28.9938 41.6315 29.895 41.6564V41.6585ZM42.2733 42.4002C43.1749 42.3754 44.0304 41.9707 44.6515 41.2753C45.2727 40.5799 45.6088 39.6506 45.5859 38.6917C45.6082 38.2143 45.5391 37.7371 45.3827 37.2891C45.2263 36.841 44.9859 36.4314 44.6761 36.0851C44.3663 35.7389 43.9936 35.4632 43.5805 35.2748C43.1675 35.0865 42.7228 34.9893 42.2733 34.9893C41.8239 34.9893 41.3792 35.0865 40.9662 35.2748C40.5531 35.4632 40.1804 35.7389 39.8706 36.0851C39.5608 36.4314 39.3204 36.841 39.164 37.2891C39.0076 37.7371 38.9385 38.2143 38.9608 38.6917C38.9379 39.6506 39.274 40.5799 39.8951 41.2753C40.5163 41.9707 41.3717 42.3754 42.2733 42.4002V42.4002Z" fill="white"/>
</svg>
