<svg width="72" height="72" viewBox="0 0 72 72" fill="none" xmlns="http://www.w3.org/2000/svg">
<circle cx="36" cy="36" r="36" fill="#333333"/>
<path fill-rule="evenodd" clip-rule="evenodd" d="M50 51H20V21H50V51ZM44.9625 43.9387V43.6025L43.4037 42.0725C43.2662 41.9675 43.1975 41.795 43.2262 41.6238V30.3762C43.1975 30.205 43.2662 30.0325 43.4037 29.9275L45 28.3975V28.0613H39.4725L35.5325 37.89L31.05 28.0613H25.2525V28.3975L27.12 30.6463C27.3025 30.8125 27.3962 31.055 27.3712 31.3V40.14C27.4262 40.4588 27.325 40.785 27.1013 41.0175L25 43.565V43.9012H30.9575V43.565L28.8563 41.0175C28.63 40.785 28.5238 40.4613 28.5663 40.14V32.495L33.795 43.9012H34.4025L38.8937 32.495V41.5862C38.8937 41.8287 38.8937 41.8762 38.735 42.035L37.12 43.6025V43.9387H44.9625V43.9387Z" fill="white"/>
</svg>
