<svg width="72" height="72" viewBox="0 0 72 72" fill="none" xmlns="http://www.w3.org/2000/svg">
<path d="M36 72C55.8823 72 72 55.8823 72 36C72 16.1177 55.8823 0 36 0C16.1177 0 0 16.1177 0 36C0 55.8823 16.1177 72 36 72Z" fill="#FF4500"/>
<path d="M60.0121 36C59.975 34.9867 59.6456 34.0057 59.0636 33.1753C58.4817 32.345 57.6719 31.7007 56.732 31.3202C55.7921 30.9396 54.7622 30.8391 53.7664 31.0307C52.7707 31.2223 51.8516 31.6978 51.1201 32.4C47.0248 29.6162 42.2108 28.0782 37.2601 27.972L39.6001 16.74L47.3041 18.36C47.3956 19.2113 47.7877 20.0021 48.4098 20.5905C49.0319 21.1788 49.8433 21.5262 50.6984 21.5702C51.5536 21.6142 52.3964 21.3519 53.0756 20.8305C53.7548 20.3092 54.2259 19.5627 54.4043 18.7253C54.5828 17.8879 54.457 17.0142 54.0493 16.2612C53.6417 15.5082 52.9791 14.9251 52.1803 14.6167C51.3816 14.3082 50.499 14.2945 49.6911 14.5781C48.8832 14.8617 48.2028 15.424 47.7721 16.164L38.9521 14.4C38.8078 14.3683 38.6587 14.3656 38.5134 14.392C38.3681 14.4184 38.2295 14.4734 38.1056 14.5538C37.9817 14.6342 37.875 14.7383 37.7916 14.8602C37.7083 14.9821 37.65 15.1194 37.6201 15.264L34.9561 27.756C29.9444 27.8315 25.0642 29.3707 20.9161 32.184C20.3611 31.6618 19.6992 31.2666 18.9763 31.0256C18.2534 30.7847 17.4867 30.7038 16.7295 30.7886C15.9722 30.8734 15.2424 31.1218 14.5907 31.5167C13.939 31.9116 13.3809 32.4434 12.9552 33.0754C12.5294 33.7074 12.2462 34.4244 12.1251 35.1767C12.004 35.9291 12.048 36.6987 12.2539 37.4324C12.4599 38.166 12.8229 38.8461 13.3178 39.4256C13.8127 40.005 14.4276 40.4699 15.1201 40.788C15.0795 41.3152 15.0795 41.8448 15.1201 42.372C15.1201 50.436 24.5161 56.988 36.1081 56.988C47.7001 56.988 57.0961 50.436 57.0961 42.372C57.1366 41.8448 57.1366 41.3152 57.0961 40.788C57.9844 40.3464 58.7297 39.6625 59.2457 38.8152C59.7617 37.9679 60.0274 36.9919 60.0121 36V36ZM24.0121 39.6C24.0121 38.888 24.2232 38.192 24.6188 37.5999C25.0143 37.0079 25.5766 36.5465 26.2344 36.274C26.8922 36.0016 27.6161 35.9303 28.3144 36.0692C29.0127 36.2081 29.6542 36.5509 30.1576 37.0544C30.6611 37.5579 31.004 38.1993 31.1429 38.8977C31.2818 39.596 31.2105 40.3198 30.938 40.9777C30.6656 41.6355 30.2041 42.1977 29.6121 42.5933C29.0201 42.9889 28.3241 43.2 27.6121 43.2C27.1393 43.2 26.6712 43.1069 26.2344 42.926C25.7976 42.745 25.4008 42.4799 25.0665 42.1456C24.7322 41.8113 24.467 41.4144 24.2861 40.9777C24.1052 40.5409 24.0121 40.0728 24.0121 39.6V39.6ZM44.9281 49.5C42.3739 51.4248 39.2315 52.4044 36.0361 52.272C32.8406 52.4044 29.6982 51.4248 27.1441 49.5C26.991 49.3135 26.9127 49.0767 26.9246 48.8357C26.9364 48.5947 27.0375 48.3667 27.2081 48.196C27.3787 48.0254 27.6067 47.9244 27.8477 47.9125C28.0887 47.9007 28.3255 47.9789 28.5121 48.132C30.6765 49.7196 33.3185 50.5198 36.0001 50.4C38.6849 50.546 41.3392 49.7713 43.5241 48.204C43.715 48.0178 43.9721 47.9151 44.2388 47.9185C44.3708 47.9202 44.5013 47.9478 44.6226 47.9999C44.744 48.052 44.8539 48.1274 44.9461 48.222C45.0382 48.3165 45.1109 48.4283 45.1599 48.551C45.2089 48.6736 45.2332 48.8047 45.2316 48.9367C45.2299 49.0688 45.2022 49.1992 45.1502 49.3205C45.0981 49.4419 45.0226 49.5518 44.9281 49.644V49.5ZM44.2801 43.344C43.568 43.344 42.872 43.1329 42.28 42.7373C41.688 42.3417 41.2266 41.7795 40.9541 41.1217C40.6816 40.4638 40.6103 39.74 40.7492 39.0417C40.8881 38.3433 41.231 37.7019 41.7345 37.1984C42.2379 36.6949 42.8794 36.3521 43.5777 36.2132C44.2761 36.0743 44.9999 36.1456 45.6577 36.418C46.3155 36.6905 46.8778 37.1519 47.2734 37.7439C47.6689 38.336 47.8801 39.032 47.8801 39.744C47.8996 40.2318 47.8198 40.7184 47.6453 41.1744C47.4709 41.6303 47.2056 42.0461 46.8655 42.3963C46.5254 42.7465 46.1176 43.0238 45.667 43.2115C45.2163 43.3992 44.7322 43.4933 44.2441 43.488L44.2801 43.344Z" fill="white"/>
</svg>
