<svg width="72" height="72" viewBox="0 0 72 72" fill="none" xmlns="http://www.w3.org/2000/svg">
<circle cx="36" cy="36" r="36" fill="#55ACEE"/>
<path d="M28.9489 52C43.2904 52 51.1327 40.0717 51.1327 29.7278C51.1327 29.3889 51.1255 29.0517 51.1109 28.7163C52.6368 27.6078 53.9538 26.2353 55 24.6629C53.5773 25.2964 52.068 25.7119 50.5224 25.8954C52.1502 24.9172 53.3686 23.3785 53.9507 21.5656C52.4201 22.4773 50.7456 23.1199 48.9995 23.4657C47.824 22.2114 46.2696 21.381 44.5767 21.1028C42.8838 20.8247 41.1468 21.1144 39.6343 21.9271C38.1219 22.7398 36.9184 24.0302 36.2099 25.5987C35.5014 27.1672 35.3275 28.9264 35.7151 30.6041C32.6148 30.4485 29.5818 29.6399 26.813 28.2309C24.0441 26.8219 21.6014 24.8441 19.6434 22.4258C18.6464 24.1491 18.3411 26.1892 18.7895 28.1307C19.2379 30.0721 20.4064 31.769 22.057 32.876C20.8194 32.8377 19.6089 32.5019 18.5274 31.8966C18.5274 31.9295 18.5274 31.961 18.5274 31.9965C18.5279 33.8037 19.1511 35.5552 20.2912 36.9538C21.4313 38.3523 23.0182 39.3119 24.7826 39.6697C23.6345 39.984 22.4298 40.0299 21.2613 39.8037C21.7592 41.3592 22.7289 42.7195 24.0349 43.6943C25.3408 44.6691 26.9176 45.2097 28.5446 45.2405C25.7828 47.4168 22.372 48.5969 18.8611 48.5909C18.2391 48.5915 17.6177 48.5554 17 48.4827C20.5651 50.7823 24.7141 52.0029 28.9515 51.9987" fill="white"/>
</svg>
