<svg width="62" height="54" viewBox="0 0 62 54" fill="none" xmlns="http://www.w3.org/2000/svg">
<path d="M26.485 43.9731L29.218 49.1371H23.752L26.485 43.9731Z" fill="#CF202C"/>
<path d="M9.91595 27.0211L4.75195 29.7551V24.2881" fill="#CF202C"/>
<path d="M42.88 27.1071L48.044 24.373V29.8401" fill="#CF202C"/>
<path d="M26.485 10.4681L23.751 5.30408H29.218" fill="#CF202C"/>
<path d="M26.485 13.9011L22.317 27.0221L26.485 40.2451L30.632 27.0221L26.485 13.9011ZM26.474 37.6811L23.239 27.0611L29.723 27.0211L26.474 37.6811Z" fill="#CF202C"/>
<path d="M49.685 0.370056L26.796 0.639053C11.997 0.639053 0 12.514 0 27.164C0 41.814 11.997 53.6891 26.796 53.6891C26.796 53.6891 42.714 55.7221 51.051 36.6221L61.745 10.586C61.746 10.587 63.83 0.370056 49.685 0.370056ZM26.468 48.662C25.658 48.662 24.858 48.617 24.072 48.53C13.283 47.334 4.891 38.1641 4.891 27.0271C4.891 15.0791 14.551 5.39305 26.468 5.39305C38.385 5.39305 48.045 15.0791 48.045 27.0271C48.044 38.9761 38.385 48.662 26.468 48.662ZM50.74 10.317C50.185 10.763 49.257 11.0141 47.74 11.0141C46.89 11.0141 46.257 10.9571 45.871 10.9001V3.33405C46.324 3.24205 47.241 3.17406 48.102 3.17406C49.155 3.17406 49.799 3.27705 50.354 3.60805C50.886 3.89405 51.272 4.42005 51.272 5.11705C51.272 5.80205 50.876 6.44305 50.015 6.76305V6.78505C50.886 7.02505 51.531 7.68805 51.531 8.68205C51.532 9.38005 51.216 9.92905 50.74 10.317ZM56.784 11.563L55.19 7.61005L52.851 11.0201H51.172L54.505 5.87006L54.044 4.49905H52.96V3.17905H55.052L57.781 9.93605L58.877 9.55405L59.293 10.7661L56.784 11.563Z" fill="#CF202C"/>
<path d="M49.54 5.33405C49.54 4.75105 49.099 4.44205 48.316 4.44205C47.942 4.44205 47.728 4.46405 47.581 4.48705V6.28105H48.147C49.053 6.28305 49.54 5.90605 49.54 5.33405Z" fill="#CF202C"/>
<path d="M48.17 7.52805H47.581V9.70004C47.75 9.72304 47.955 9.72305 48.248 9.72305C49.029 9.72305 49.72 9.42604 49.72 8.61404C49.721 7.83704 49.03 7.52805 48.17 7.52805Z" fill="#CF202C"/>
</svg>
