<svg width="50" height="51" viewBox="0 0 50 51" fill="none" xmlns="http://www.w3.org/2000/svg">
<path d="M1.17188 1.53894H48.8281V49.1952H1.17188V1.53894Z" fill="#D1222E"/>
<path fill-rule="evenodd" clip-rule="evenodd" d="M0 0.367065H50V50.3671H0V0.367065ZM1.17188 1.53894V49.1952H48.8281V1.53894H1.17188Z" fill="white"/>
<path d="M43.5775 29.8723C43.5775 29.8723 38.2776 29.3378 32.8404 22.8735C32.8404 22.8735 31.4245 31.2995 43.5775 34.9557V29.8723Z" fill="white"/>
<path d="M43.5775 37.5107C43.5775 37.5107 38.6409 35.9675 36.9337 33.6538C35.2273 31.3401 31.7205 29.9795 28.9062 32.2023C28.9062 32.2023 31.5364 32.5652 33.0124 34.9243C34.4893 37.2834 38.3643 40.7766 43.5775 37.5107Z" fill="white"/>
<path d="M43.5775 39.9635C43.5775 39.9635 38.5877 42.3204 32.7898 37.9763C32.7898 37.9763 32.8865 46.2031 43.5775 45.2322V39.9635Z" fill="white"/>
<path d="M43.5775 27.0918C43.5775 27.0918 35.752 28.8833 33.509 17.0514C33.509 17.0514 33.0512 14.9302 31.4953 13.8455C31.4953 13.8455 35.9567 12.9961 37.8566 19.8314C37.8566 19.8323 39.1841 24.122 43.5775 27.0918Z" fill="white"/>
<path d="M43.5776 23.7365C43.5776 23.7365 35.6725 19.8985 38.6306 12.0858C38.6306 12.0858 39.2614 16.1945 43.5776 19.13V23.7365Z" fill="white"/>
<rect x="6.25" y="6.61707" width="17.1875" height="38.2812" fill="white"/>
<rect x="8.98438" y="9.74207" width="12.1094" height="13.6719" fill="#D2222E"/>
<rect x="9.76562" y="10.5233" width="10.5469" height="3.51562" fill="white"/>
<rect x="9.76562" y="14.8202" width="10.5469" height="3.51562" fill="white"/>
<rect x="9.76562" y="19.1171" width="10.5469" height="3.51562" fill="white"/>
<rect x="9.76562" y="29.2733" width="10.1562" height="1.17188" fill="#D2222D"/>
<path d="M16.0156 29.8593C16.0156 30.3986 15.5784 30.8358 15.0391 30.8358C14.4997 30.8358 14.0625 30.3986 14.0625 29.8593C14.0625 29.3199 14.4997 28.8827 15.0391 28.8827C15.5784 28.8827 16.0156 29.3199 16.0156 29.8593Z" fill="white"/>
<path fill-rule="evenodd" clip-rule="evenodd" d="M16.7969 29.8593C16.7969 30.8301 16.0099 31.6171 15.0391 31.6171C14.0682 31.6171 13.2812 30.8301 13.2812 29.8593C13.2812 28.8884 14.0682 28.1014 15.0391 28.1014C16.0099 28.1014 16.7969 28.8884 16.7969 29.8593ZM15.0391 30.8358C15.5784 30.8358 16.0156 30.3986 16.0156 29.8593C16.0156 29.3199 15.5784 28.8827 15.0391 28.8827C14.4997 28.8827 14.0625 29.3199 14.0625 29.8593C14.0625 30.3986 14.4997 30.8358 15.0391 30.8358Z" fill="#D2222D"/>
</svg>
