<svg width="236" height="77" viewBox="0 0 236 77" fill="none" xmlns="http://www.w3.org/2000/svg">
<path d="M33.1169 40.5158C33.1169 40.5158 21.1537 39.3094 8.88038 24.7177C8.88038 24.7177 5.68431 43.7375 33.1169 51.9904V40.5158Z" fill="#DA2C37"/>
<path d="M33.1169 57.7578C33.1169 57.7578 21.9736 54.2742 18.12 49.0517C14.2683 43.8292 6.35243 40.758 0 45.7753C0 45.7753 5.93692 46.5944 9.26871 51.9195C12.6024 57.2447 21.3493 65.1298 33.1169 57.7578Z" fill="#DA2C37"/>
<path d="M33.1169 63.2944C33.1169 63.2944 21.8535 68.6145 8.76624 58.8086C8.76624 58.8086 8.98442 77.3789 33.1169 75.1873V63.2944Z" fill="#DA2C37"/>
<path d="M33.1168 34.2395C33.1168 34.2395 15.4526 38.2833 10.3896 11.5758C10.3896 11.5758 9.35625 6.78756 5.84412 4.33914C5.84412 4.33914 15.9147 2.42186 20.2032 17.8509C20.2032 17.8528 23.1997 27.536 33.1168 34.2395Z" fill="#DA2C37"/>
<path d="M33.1169 26.6658C33.1169 26.6658 15.273 18.0023 21.9503 0.367065C21.9503 0.367065 23.3743 9.6415 33.1169 16.2677V26.6658Z" fill="#DA2C37"/>
<path d="M153.475 76.0662C153.158 76.0662 153 75.9077 153 75.5909V18.8423C153 18.5255 153.158 18.3671 153.475 18.3671H189.75C190.067 18.3671 190.225 18.5255 190.225 18.8423V27.0001C190.225 27.317 190.067 27.4754 189.75 27.4754H162.544V43.2367H185.671C185.988 43.2367 186.146 43.3951 186.146 43.7119V51.3549C186.146 51.6718 185.988 51.8302 185.671 51.8302H162.544V75.5909C162.544 75.9077 162.386 76.0662 162.069 76.0662H153.475Z" fill="white"/>
<path d="M198.475 76.0662C198.158 76.0662 198 75.9077 198 75.5909V18.8423C198 18.5255 198.158 18.3671 198.475 18.3671H234.75C235.067 18.3671 235.225 18.5255 235.225 18.8423V27.0001C235.225 27.317 235.067 27.4754 234.75 27.4754H207.544V43.2367H230.671C230.988 43.2367 231.146 43.3951 231.146 43.7119V51.3549C231.146 51.6718 230.988 51.8302 230.671 51.8302H207.544V75.5909C207.544 75.9077 207.386 76.0662 207.069 76.0662H198.475Z" fill="white"/>
<path d="M96.4673 76.1058C96.2825 76.1058 96.1505 76.0397 96.0713 75.9077C95.9921 75.7757 95.9789 75.6305 96.0317 75.4721L116.783 18.6839C116.836 18.4727 116.968 18.3671 117.179 18.3671H124.267C124.347 18.3671 124.426 18.4067 124.505 18.4859C124.611 18.5387 124.677 18.6047 124.703 18.6839L145.414 75.4721C145.467 75.6305 145.454 75.7757 145.375 75.9077C145.296 76.0397 145.177 76.1058 145.018 76.1058H135.95C135.739 76.1058 135.607 76.0001 135.554 75.7889L131.277 63.2749H110.367C109.628 65.4134 108.889 67.5123 108.15 69.5715C107.437 71.6044 106.711 73.6769 105.972 75.7889C105.945 75.8681 105.879 75.9473 105.774 76.0265C105.694 76.0793 105.615 76.1058 105.536 76.1058H96.4673ZM128.426 54.7607C128.373 54.5758 128.294 54.3778 128.188 54.1666C128.109 53.9554 128.043 53.7706 127.99 53.6122C127.541 52.3186 127.132 51.1305 126.762 50.0481C126.393 48.9393 126.063 47.9756 125.772 47.1572C125.587 46.6292 125.403 46.1144 125.218 45.6128C125.059 45.1111 124.901 44.6359 124.743 44.1871C124.611 43.7647 124.479 43.3687 124.347 42.9991C124.215 42.6031 124.083 42.2202 123.951 41.8506C123.713 41.085 123.462 40.3194 123.198 39.5538C122.961 38.7881 122.71 37.9961 122.446 37.1777C122.314 36.8081 122.169 36.3989 122.01 35.95C121.878 35.5012 121.733 35.026 121.575 34.5244C121.495 34.2604 121.429 34.0624 121.377 33.9304C121.35 33.772 121.311 33.6268 121.258 33.4948C121.205 33.3364 121.139 33.1647 121.06 32.9799C121.007 32.7951 120.928 32.5311 120.822 32.1879C120.532 33.0591 120.254 33.8644 119.99 34.6036C119.753 35.3428 119.528 36.0292 119.317 36.6629C119.264 36.8213 119.225 36.9665 119.198 37.0985C119.172 37.2305 119.132 37.3625 119.08 37.4945C118.948 37.9433 118.802 38.3657 118.644 38.7617C118.512 39.1577 118.38 39.5538 118.248 39.9498C118.116 40.3722 117.984 40.7814 117.852 41.1774C117.72 41.5734 117.588 41.9562 117.456 42.3258C117.192 43.1179 116.915 43.9495 116.624 44.8207C116.36 45.692 116.057 46.6028 115.714 47.5532C115.37 48.5037 115.014 49.5333 114.644 50.6421C114.275 51.7246 113.799 53.0974 113.219 54.7607H128.426Z" fill="white"/>
<path d="M46.4356 76.0662C46.1452 76.0662 46 75.9077 46 75.5909V18.8423C46 18.5255 46.1452 18.3671 46.4356 18.3671H55.0687C55.3855 18.3671 55.5439 18.5255 55.5439 18.8423V47.0384C59.3192 42.2598 63.0946 37.5209 66.8699 32.8215C70.6452 28.0958 74.4337 23.3436 78.2355 18.5651C78.3675 18.4331 78.4863 18.3671 78.5919 18.3671H88.809C89.0202 18.3671 89.1654 18.4595 89.2446 18.6443C89.3238 18.8291 89.2974 19.0007 89.1654 19.1591L71.1864 41.2962C74.5393 47.0252 77.8526 52.7014 81.1263 58.3248C84.4265 63.9482 87.7662 69.6243 91.1455 75.3533C91.2247 75.5381 91.2247 75.7097 91.1455 75.8681C91.0927 76.0001 90.9607 76.0662 90.7495 76.0662H80.5323C80.3739 76.0662 80.2419 75.9869 80.1363 75.8285L64.9294 48.6621C63.2926 50.3517 61.7217 51.9886 60.2169 53.5726C58.712 55.1567 57.1544 56.7935 55.5439 58.4832V75.5909C55.5439 75.9077 55.3855 76.0662 55.0687 76.0662H46.4356Z" fill="white"/>
</svg>
