<svg width="191" height="65" viewBox="0 0 191 65" fill="none" xmlns="http://www.w3.org/2000/svg">
<g filter="url(#filter0_d)">
<path fill-rule="evenodd" clip-rule="evenodd" d="M28.7632 4.7075H31.6066V15.3493H31.7046C32.2931 14.4979 32.8813 13.7121 33.4371 12.9919L40.1699 4.70777H43.6992L35.7244 14.0719L44.32 26.776H40.9539L33.6982 15.9381L31.6066 18.3613V26.776H28.7632V4.7075Z" fill="white"/>
<path fill-rule="evenodd" clip-rule="evenodd" d="M57.8844 16.4296H49.3213V24.3859H58.8649V26.776H46.478V4.7075H58.3745V7.09795H49.3213V14.0721H57.8846V16.4296H57.8844Z" fill="white"/>
<path fill-rule="evenodd" clip-rule="evenodd" d="M73.9647 16.4296H65.4014V24.3859H74.9447V26.776H62.558V4.7075H74.4546V7.09795H65.4014V14.0721H73.9647V16.4296Z" fill="white"/>
<path fill-rule="evenodd" clip-rule="evenodd" d="M78.639 4.96932C80.0112 4.74051 81.8092 4.54387 84.0967 4.54387C86.9075 4.54387 88.9663 5.19841 90.2739 6.37742C91.4828 7.42496 92.2022 9.02969 92.2022 10.9941C92.2022 12.9916 91.614 14.5631 90.5026 15.7088C88.9997 17.3132 86.5483 18.132 83.7702 18.132C82.9203 18.132 82.136 18.0992 81.4824 17.9356V26.7761H78.639V4.96932ZM81.4824 15.6109C82.1031 15.7745 82.8877 15.84 83.8356 15.84C87.2669 15.84 89.3588 14.1698 89.3588 11.1251C89.3588 8.21069 87.2998 6.80287 84.1622 6.80287C82.9201 6.80287 81.9722 6.90105 81.4821 7.03223V15.6109H81.4824Z" fill="white"/>
<path fill-rule="evenodd" clip-rule="evenodd" d="M106.519 19.8346L104.231 26.776H101.289L108.774 4.7075H112.205L119.722 26.776H116.683L114.329 19.8346H106.519ZM113.741 17.6083L111.584 11.2562C111.094 9.81568 110.767 8.50604 110.44 7.22886H110.375C110.048 8.5385 109.689 9.88086 109.264 11.2232L107.107 17.6083H113.741Z" fill="white"/>
<path fill-rule="evenodd" clip-rule="evenodd" d="M126.554 26.776L120.965 4.7075H123.972L126.587 15.873C127.24 18.6231 127.829 21.3739 128.221 23.5017H128.286C128.646 21.3081 129.332 18.6886 130.084 15.8402L133.025 4.7075H136L138.679 15.9057C139.3 18.5252 139.889 21.1445 140.216 23.4692H140.281C140.738 21.046 141.359 18.5904 142.046 15.8402L144.954 4.7075H147.863L141.62 26.776H138.646L135.868 15.2833C135.182 12.4677 134.725 10.3063 134.43 8.07977H134.365C133.973 10.2739 133.482 12.4347 132.666 15.2833L129.528 26.776H126.554Z" fill="white"/>
<path fill-rule="evenodd" clip-rule="evenodd" d="M154.172 19.8346L151.885 26.776H148.943L156.428 4.7075H159.859L167.376 26.776H164.337L161.983 19.8346H154.172ZM161.395 17.6083L159.238 11.2562C158.747 9.81568 158.421 8.50604 158.094 7.22886H158.029C157.701 8.5385 157.343 9.88086 156.917 11.2232L154.76 17.6083H161.395Z" fill="white"/>
<path fill-rule="evenodd" clip-rule="evenodd" d="M175.515 26.776V17.4117L168.553 4.7075H171.789L174.894 10.7978C175.744 12.468 176.398 13.81 177.084 15.349H177.149C177.77 13.9082 178.522 12.4677 179.372 10.7978L182.542 4.7075H185.778L178.391 17.3792V26.7763H175.515V26.776Z" fill="white"/>
<path fill-rule="evenodd" clip-rule="evenodd" d="M28.7632 33.1361H40.6265V35.5265H31.6063V42.861H39.9406V45.2184H31.6066V55.2052H28.7632V33.1361Z" fill="white"/>
<path fill-rule="evenodd" clip-rule="evenodd" d="M44.6808 33.4309C46.1188 33.136 48.1776 32.9727 50.1386 32.9727C53.1784 32.9727 55.1393 33.5293 56.5116 34.7735C57.623 35.7556 58.2441 37.2616 58.2441 38.9642C58.2441 41.8786 56.4138 43.8106 54.0934 44.596V44.6939C55.793 45.2836 56.8061 46.855 57.3288 49.147C58.0476 52.2248 58.5706 54.3531 59.0284 55.2046H56.0872C55.7275 54.5822 55.2374 52.6835 54.6164 49.933C53.9624 46.8878 52.7861 45.7418 50.204 45.6436H47.5242V55.2046H44.6808V33.4309ZM47.5239 43.483H50.4328C53.472 43.483 55.4001 41.8131 55.4001 39.292C55.4001 36.4431 53.3411 35.1989 50.3344 35.1662C48.9619 35.1662 47.9814 35.2974 47.5236 35.4286V43.483H47.5239Z" fill="white"/>
<path fill-rule="evenodd" clip-rule="evenodd" d="M81.09 43.9412C81.09 51.5378 76.4818 55.5654 70.8603 55.5654C65.0428 55.5654 60.9573 51.0466 60.9573 44.367C60.9573 37.36 65.3042 32.7763 71.1871 32.7763C77.2004 32.7763 81.09 37.3928 81.09 43.9412ZM63.9969 44.3018C63.9969 49.0164 66.546 53.2404 71.0238 53.2404C75.534 53.2404 78.0831 49.0819 78.0831 44.0724C78.0831 39.6848 75.7953 35.1008 71.0562 35.1008C66.3501 35.1008 63.9969 39.4557 63.9969 44.3018Z" fill="white"/>
<path fill-rule="evenodd" clip-rule="evenodd" d="M103.348 45.5129C103.184 42.4352 102.988 38.7351 103.021 35.9847H102.923C102.171 38.5715 101.256 41.3219 100.145 44.3667L96.2557 55.0734H94.0988L90.5363 44.5633C89.4903 41.4523 88.6076 38.6039 87.9869 35.9844H87.9214C87.8562 38.7349 87.6924 42.4347 87.4965 45.7415L86.9086 55.2043H84.1959L85.7319 33.1355H89.3594L93.118 43.81C94.0333 46.5272 94.7851 48.9504 95.3404 51.2421H95.4384C95.994 49.0156 96.7786 46.5929 97.7589 43.81L101.681 33.1355H105.309L106.681 55.2043H103.903L103.348 45.5129Z" fill="white"/>
<path fill-rule="evenodd" clip-rule="evenodd" d="M118.681 33.1361H130.545V35.5265H121.524V42.861H129.859V45.2184H121.524V55.2052H118.681V33.1361Z" fill="#CF222C"/>
<path fill-rule="evenodd" clip-rule="evenodd" d="M137.441 33.1361V55.2049H134.598V33.1361H137.441Z" fill="#CF222C"/>
<path fill-rule="evenodd" clip-rule="evenodd" d="M142.409 33.4309C143.848 33.1361 145.907 32.9727 147.868 32.9727C150.907 32.9727 152.869 33.5294 154.241 34.7735C155.352 35.7556 155.973 37.2616 155.973 38.9643C155.973 41.8786 154.143 43.8106 151.823 44.5961V44.694C153.522 45.2836 154.536 46.8551 155.058 49.1471C155.777 52.2248 156.3 54.3532 156.758 55.2046H153.816C153.457 54.5823 152.966 52.6835 152.346 49.9331C151.692 46.8878 150.515 45.7418 147.933 45.6436H145.253V55.2046H142.409V33.4309ZM145.253 43.4831H148.162C151.201 43.4831 153.13 41.8132 153.13 39.2921C153.13 36.4432 151.071 35.199 148.064 35.1663C146.691 35.1663 145.711 35.2974 145.253 35.4286V43.4831H145.253Z" fill="#CF222C"/>
<path fill-rule="evenodd" clip-rule="evenodd" d="M171.4 44.8581H162.838V52.8144H172.381V55.2049H159.994V33.1361H171.891V35.5265H162.838V42.5004H171.4V44.8581Z" fill="#CF222C"/>
<path d="M22.7273 31.4496C22.7273 31.4496 14.5172 30.6216 6.09438 20.6077C6.09438 20.6077 3.901 33.6605 22.7273 39.3243V31.4496Z" fill="#DA2C37"/>
<path d="M22.7273 43.2823C22.7273 43.2823 15.0799 40.8916 12.4353 37.3075C9.79199 33.7234 4.35951 31.6157 0 35.059C0 35.059 4.07436 35.6211 6.36088 39.2756C8.64872 42.9302 14.6515 48.3415 22.7273 43.2823Z" fill="#DA2C37"/>
<path d="M22.7273 47.0819C22.7273 47.0819 14.9975 50.733 6.01605 44.0034C6.01605 44.0034 6.16579 56.7477 22.7273 55.2437V47.0819Z" fill="#DA2C37"/>
<path d="M22.7273 27.1423C22.7273 27.1423 10.6048 29.9175 7.13011 11.5888C7.13011 11.5888 6.42097 8.3027 4.01068 6.62241C4.01068 6.62241 10.9218 5.30664 13.865 15.8952C13.865 15.8965 15.9214 22.5418 22.7273 27.1423Z" fill="#DA2C37"/>
<path d="M22.7273 21.9446C22.7273 21.9446 10.4815 15.9991 15.0639 3.89648C15.0639 3.89648 16.0412 10.2613 22.7273 14.8087V21.9446Z" fill="#DA2C37"/>
</g>
<defs>
<filter id="filter0_d" x="0" y="0.367065" width="191" height="64" filterUnits="userSpaceOnUse" color-interpolation-filters="sRGB">
<feFlood flood-opacity="0" result="BackgroundImageFix"/>
<feColorMatrix in="SourceAlpha" type="matrix" values="0 0 0 0 0 0 0 0 0 0 0 0 0 0 0 0 0 0 127 0"/>
<feOffset dx="2" dy="2"/>
<feGaussianBlur stdDeviation="1"/>
<feColorMatrix type="matrix" values="0 0 0 0 0 0 0 0 0 0 0 0 0 0 0 0 0 0 0.25 0"/>
<feBlend mode="normal" in2="BackgroundImageFix" result="effect1_dropShadow"/>
<feBlend mode="normal" in="SourceGraphic" in2="effect1_dropShadow" result="shape"/>
</filter>
</defs>
</svg>
